<svg width="40" height="40" viewBox="0 0 24 24" fill="#25D366" xmlns="http://www.w3.org/2000/svg">
  <circle cx="12" cy="12" r="12" fill="#25D366"/>
  <path fill="#fff" d="M17.472 14.382c-.297-.149-1.758-.867-2.03-.967-.273-.099-.471-.148-.67.15-.198.297-.767.967-.94 1.164-.173.198-.347.223-.644.075-.297-.149-1.255-.463-2.39-1.475-.883-.788-1.48-1.762-1.653-2.059-.173-.297-.018-.458.13-.606.134-.133.297-.347.446-.52.149-.174.198-.298.298-.497.099-.198.05-.372-.025-.521-.075-.148-.669-1.612-.916-2.206-.242-.579-.487-.5-.669-.51l-.57-.01c-.198 0-.52.074-.793.372-.273.297-1.04 1.016-1.04 2.476s1.064 2.87 1.213 3.069c.149.198 2.095 3.2 5.076 4.487.709.306 1.261.489 1.692.626.711.226 1.358.194 1.87.118.57-.085 1.758-.718 2.006-1.412.248-.694.248-1.29.173-1.412-.074-.124-.272-.198-.57-.347z"/>
</svg>