<svg xmlns="http://www.w3.org/2000/svg" viewBox="0 0 48 48" width="48" height="48">
  <circle cx="24" cy="24" r="24" fill="#25D366"/>
  <path fill="#fff" d="M24 10c-7.7 0-14 6.3-14 14 0 2.5.7 4.9 1.9 7L10 38l7.2-1.9c2 .9 4.2 1.4 6.5 1.4 7.7 0 14-6.3 14-14S31.7 10 24 10zm0 25.5c-2 0-3.9-.5-5.6-1.5l-.4-.2-4.3 1.1 1.1-4.2-.3-.4c-1.1-1.7-1.6-3.6-1.6-5.6 0-6.1 5-11 11.1-11s11.1 5 11.1 11-5 11-11.1 11zm6.2-8.3c-.3-.2-1.9-.9-2.2-1-.3-.1-.5-.2-.7.2-.2.3-.8 1-1 1.2-.2.2-.4.2-.7.1-.3-.2-1.3-.5-2.5-1.6-.9-.8-1.6-1.9-1.8-2.2-.2-.3 0-.5.2-.7.2-.2.3-.3.5-.5.2-.2.2-.3.3-.5.1-.2 0-.4 0-.5 0-.2-.7-1.8-1-2.5-.3-.7-.6-.6-.8-.6h-.7c-.2 0-.6.1-.9.4-.3.3-1.1 1.1-1.1 2.7s1.2 3.2 1.4 3.4c.2.2 2.3 3.6 5.6 5 .8.3 1.4.6 1.9.7.8.2 1.5.2 2 .1.6-.1 1.9-.8 2.2-1.6.3-.8.3-1.4.2-1.6-.1-.2-.3-.2-.7-.4z"/>
</svg>